<svg xmlns="http://www.w3.org/2000/svg" xmlns:xlink="http://www.w3.org/1999/xlink" id="Layer_1" width="200" height="200" x="0" y="0" version="1.1" viewBox="0 0 100 100" xml:space="preserve" style="width:100%;height:100%;background-size:initial;background-repeat-y:initial;background-repeat-x:initial;background-position-y:initial;background-position-x:initial;background-origin:initial;background-image:initial;background-color:#f1f2f3;background-clip:initial;background-attachment:initial;animation-play-state:paused"><g class="ldl-scale" style="transform-origin:50% 50%;transform:rotate(0deg) scale(.8,.8);animation-play-state:paused"><path fill="#f4e6c8" d="M46.6 59.7L15 40.1v34.8c0 1 .8 1.8 1.8 1.8h66.4c1 0 1.8-.8 1.8-1.8V40.1L53.4 59.7c-2.1 1.3-4.7 1.3-6.8 0z" style="fill:transparent;animation-play-state:paused"/><path fill="#f7b26a" d="M83.2 23.3H16.8c-1 0-1.8.8-1.8 1.8v3.5c0 3.4 1.8 6.6 4.7 8.5l26.9 16.7c2.1 1.3 4.7 1.3 6.8 0l26.9-16.7c2.9-1.8 4.7-5 4.7-8.5v-3.5c0-1-.8-1.8-1.8-1.8z" style="fill:#fff;animation-play-state:paused"/><path fill="#333" d="M85 18.3H15c-2.8 0-5 2.2-5 5v53c0 2.9 2.4 5.3 5.3 5.3h69.4c2.9 0 5.3-2.4 5.3-5.3v-53c0-2.7-2.2-5-5-5zm0 56.6c0 1-.8 1.8-1.8 1.8H16.8c-1 0-1.8-.8-1.8-1.8V40.1l31.6 19.7c2.1 1.3 4.7 1.3 6.8 0L85 40.1v34.8zm0-46.3c0 3.4-1.8 6.6-4.7 8.5L53.4 53.8c-2.1 1.3-4.7 1.3-6.8 0L19.7 37.1c-2.9-1.8-4.7-5-4.7-8.5v-3.5c0-1 .8-1.8 1.8-1.8h66.4c1 0 1.8.8 1.8 1.8v3.5z" style="fill:#f15b14;animation-play-state:paused"/><metadata xmlns:d="https://loading.io/stock/" style="animation-play-state:paused"><d:name style="animation-play-state:paused">mail</d:name><d:tags style="animation-play-state:paused">email,envelope,packet,message,notification,information,letter,mail,web application</d:tags><d:license style="animation-play-state:paused">by</d:license><d:slug style="animation-play-state:paused">kcjcu0</d:slug></metadata></g></svg>