<svg xmlns="http://www.w3.org/2000/svg" xmlns:xlink="http://www.w3.org/1999/xlink" width="1280" height="544" preserveAspectRatio="xMidYMid" viewBox="0 0 1280 544" style="z-index:1;margin-right:-2px;display:block;background-repeat-y:initial;background-repeat-x:initial;background-color:#f1f2f3;animation-play-state:paused"><g transform="translate(640,272) scale(1,1) translate(-640,-272)" style="transform:matrix(1,0,0,1,0,0);animation-play-state:paused"><linearGradient id="lg-0.6894177654785083" x1="0" x2="1" y1="0" y2="0" style="animation-play-state:paused"><stop offset="0" stop-color="#0a0a0a" style="animation-play-state:paused"/><stop offset="1" stop-color="#dd771b" style="animation-play-state:paused"/></linearGradient><path fill="url(#lg-0.6894177654785083)" d="M 0 0 L 0 491.656 Q 128 461.832 256 413.982 T 512 433.351 T 768 391.808 T 1024 318.604 T 1280 213.042 L 1280 0 Z" opacity=".4" style="opacity:.4;animation-play-state:paused"/><path fill="url(#lg-0.6894177654785083)" d="M 0 0 L 0 515.78 Q 128 512.243 256 471.689 T 512 384.105 T 768 354.403 T 1024 284.049 T 1280 202.003 L 1280 0 Z" opacity=".4" style="opacity:.4;animation-play-state:paused"/><path fill="url(#lg-0.6894177654785083)" d="M 0 0 L 0 449.119 Q 128 500.307 256 465.881 T 512 350.486 T 768 295.384 T 1024 245.468 T 1280 249.331 L 1280 0 Z" opacity=".4" style="opacity:.4;animation-play-state:paused"/><path fill="url(#lg-0.6894177654785083)" d="M 0 0 L 0 519.333 Q 128 437.754 256 406.797 T 512 436.143 T 768 342.895 T 1024 330.606 T 1280 243.165 L 1280 0 Z" opacity=".4" style="opacity:.4;animation-play-state:paused"/><path fill="url(#lg-0.6894177654785083)" d="M 0 0 L 0 504.635 Q 128 436.707 256 417.176 T 512 432.377 T 768 376.865 T 1024 272.344 T 1280 219.638 L 1280 0 Z" opacity=".4" style="opacity:.4;animation-play-state:paused"/></g></svg>